<svg width="72" height="72" viewBox="0 0 72 72" fill="none" xmlns="http://www.w3.org/2000/svg">
<rect width="72" height="72" rx="36" fill="#00B307" fill-opacity="0.1"/>
<g clip-path="url(#clip0_604_20399)">
<path d="M52.4905 16.5389C52.4372 16.3432 52.3046 16.1784 52.1246 16.0846C51.7694 15.8967 51.329 16.0323 51.141 16.3875C51.1405 16.3884 51.14 16.3893 51.1396 16.3902C51.1396 16.4103 47.4528 23.5627 36.1352 24.8091C34.6589 24.9666 33.2158 25.3517 31.8574 25.9509C29.4259 27.008 27.4178 28.8477 26.1523 31.1775C24.9709 33.3659 24.4816 35.8614 24.7492 38.3339C24.9463 40.1363 25.5483 41.8709 26.5102 43.4078C24.4999 44.8511 18.1234 49.8405 17.5485 55.1958C17.5063 55.5954 17.7962 55.9537 18.1958 55.9959C18.5955 56.0381 18.9537 55.7482 18.9959 55.3486C19.5226 50.5682 25.505 45.9326 27.3705 44.5898C29.6099 47.3398 32.963 48.8917 36.5613 49.145C38.9832 49.3013 41.4079 48.8883 43.6414 47.9389C46.0659 46.9216 48.2072 45.3308 49.8812 43.3032C54.1951 38.0766 56.2496 29.2919 52.4905 16.5389ZM27.7887 42.6881C27.5113 42.2512 27.2667 41.7943 27.0569 41.3211C26.6155 40.3228 26.3307 39.2624 26.2126 38.1771C25.9664 35.9995 26.3869 33.7984 27.4188 31.865C28.5341 29.8152 30.3032 28.1975 32.4444 27.2696C33.6685 26.7366 34.9677 26.3962 36.296 26.2605C43.766 25.4564 48.1604 22.1314 50.428 19.7191C49.0957 24.1054 46.8019 28.1393 43.7138 31.5273L43.2715 27.0726C43.249 26.6713 42.9054 26.3643 42.5042 26.3868C42.103 26.4093 41.7959 26.7529 41.8184 27.1541C41.8195 27.1739 41.8214 27.1937 41.8241 27.2133L42.391 32.9385C39.0098 36.3679 34.3099 39.8135 27.7887 42.6881ZM48.7554 42.3705V42.3745C47.2345 44.2262 45.2863 45.6806 43.0785 46.6121C41.0483 47.4701 38.8448 47.8391 36.6458 47.6896C33.5845 47.5345 30.7118 46.1639 28.6651 43.8822C31.0635 42.8209 33.3826 41.5888 35.6045 40.1954L41.993 41.4016C42.39 41.4638 42.7623 41.1923 42.8245 40.7953C42.8845 40.4123 42.6338 40.0495 42.2543 39.9703L37.3453 39.0415C39.612 37.4848 41.7219 35.7115 43.6454 33.7466C43.6807 33.7162 43.713 33.6826 43.7419 33.6461C48.8157 28.3632 50.9747 23.1365 51.8753 19.9202C54.36 30.5181 52.4583 37.8917 48.7554 42.3705Z" fill="#00B307"/>
</g>
<defs>
<clipPath id="clip0_604_20399">
<rect width="40" height="40" fill="white" transform="translate(16 16)"/>
</clipPath>
</defs>
</svg>
