<svg width="72" height="72" viewBox="0 0 72 72" fill="none" xmlns="http://www.w3.org/2000/svg">
<rect width="72" height="72" rx="36" fill="#00B307" fill-opacity="0.1"/>
<g clip-path="url(#clip0_604_20406)">
<path d="M48.3165 31.6891V30.305C48.3165 26.9924 47.1443 23.9143 45.0191 21.6303C42.8409 19.2857 39.8459 18 36.5787 18H35.4367C32.1695 18 29.1745 19.2857 26.9964 21.6303C24.8712 23.9143 23.6989 26.9924 23.6989 30.305V31.6891C21.1199 31.863 19.0703 34.0109 19.0703 36.6353V38.7983C19.0703 41.5286 21.2938 43.7521 24.0241 43.7521H26.8149C27.314 43.7521 27.7224 43.3437 27.7224 42.8445V32.5815C27.7224 32.0824 27.314 31.674 26.8149 31.674H25.514V30.305C25.514 24.3227 29.7796 19.8151 35.4291 19.8151H36.5712C42.2283 19.8151 46.4863 24.3227 46.4863 30.305V31.674H45.1854C44.6863 31.674 44.2779 32.0824 44.2779 32.5815V42.837C44.2779 43.3361 44.6863 43.7445 45.1854 43.7445H46.456C46.0854 48.479 42.8258 49.5756 41.3132 49.8252C40.8972 48.5471 39.6947 47.6244 38.2804 47.6244H36.0115C34.2569 47.6244 32.8275 49.0538 32.8275 50.8084C32.8275 52.563 34.2569 54 36.0115 54H38.288C39.7552 54 40.988 53.0017 41.3585 51.6555C42.0997 51.5496 43.272 51.2849 44.4367 50.6042C46.0779 49.6437 48.0216 47.6849 48.2787 43.737C50.8728 43.5782 52.93 41.4227 52.93 38.7908V36.6277C52.9375 34.0109 50.8955 31.8555 48.3165 31.6891ZM25.9224 41.9294H24.0392C22.3073 41.9294 20.9006 40.5227 20.9006 38.7908V36.6277C20.9006 34.8958 22.3073 33.4891 24.0392 33.4891H25.9224V41.9294ZM38.288 52.1849H36.0115C35.2552 52.1849 34.6426 51.5723 34.6426 50.816C34.6426 50.0597 35.2552 49.4471 36.0115 49.4471H38.288C39.0443 49.4471 39.6569 50.0597 39.6569 50.816C39.6569 51.5723 39.0443 52.1849 38.288 52.1849ZM51.1224 38.7908C51.1224 40.5227 49.7157 41.9294 47.9838 41.9294H46.1006V33.4891H47.9838C49.7157 33.4891 51.1224 34.8958 51.1224 36.6277V38.7908Z" fill="#00B307"/>
</g>
<defs>
<clipPath id="clip0_604_20406">
<rect width="36" height="36" fill="white" transform="translate(18 18)"/>
</clipPath>
</defs>
</svg>
