<svg width="72" height="72" viewBox="0 0 72 72" fill="none" xmlns="http://www.w3.org/2000/svg">
<rect width="72" height="72" rx="36" fill="#00B307" fill-opacity="0.1"/>
<g clip-path="url(#clip0_604_20468)">
<path d="M47.1384 33.3704C46.9781 32.8758 46.5586 32.5221 46.0439 32.4474L39.9436 31.5609L37.2156 26.0337C36.9859 25.5671 36.52 25.2773 35.9999 25.2773C35.4798 25.2773 35.0139 25.5671 34.7843 26.0332L32.056 31.5609L25.9557 32.4474C25.4414 32.5221 25.022 32.8755 24.8611 33.3702C24.7008 33.8641 24.8321 34.3965 25.2043 34.7598L29.6187 39.0625L28.5766 45.138C28.4886 45.6503 28.695 46.1584 29.1157 46.4641C29.3533 46.637 29.6314 46.7248 29.9114 46.7247C30.1268 46.7247 30.3434 46.6727 30.5435 46.5675L35.9999 43.6989L41.4559 46.5676C41.6496 46.6693 41.8677 46.7231 42.0865 46.7231C42.375 46.7231 42.6505 46.6336 42.8837 46.4641C43.3036 46.1587 43.5104 45.6509 43.4228 45.1384L43.0106 42.7347C42.9515 42.3909 42.6247 42.1599 42.2813 42.2189C41.9375 42.2779 41.7066 42.6045 41.7656 42.9482L42.1778 45.3515C42.1836 45.3862 42.1691 45.422 42.1409 45.4424C42.099 45.473 42.0686 45.4627 42.0434 45.4494L36.2934 42.4264C36.1095 42.3298 35.8898 42.3297 35.7056 42.4264L29.955 45.4495C29.9243 45.4657 29.8861 45.4629 29.8579 45.4424C29.8293 45.4216 29.8151 45.387 29.8211 45.3519L30.9194 38.9488C30.9546 38.7438 30.8868 38.5348 30.7379 38.3898L26.0859 33.8555C26.0607 33.8309 26.0514 33.7936 26.0621 33.7606C26.0729 33.7273 26.1023 33.7024 26.1369 33.6974L32.5659 32.7632C32.7717 32.7333 32.9495 32.6041 33.0415 32.4177L35.9169 26.5918C35.9482 26.5284 36.0509 26.5279 36.0825 26.5921L38.9578 32.4177C39.0497 32.6041 39.2276 32.7333 39.4333 32.7632L45.8624 33.6974C45.8969 33.7025 45.9261 33.727 45.9371 33.7609C45.9479 33.7939 45.9386 33.831 45.9136 33.8553L41.2615 38.3898C41.1127 38.5348 41.0447 38.744 41.08 38.9488L41.427 40.9719C41.4858 41.3156 41.8125 41.5466 42.1561 41.4876C42.5 41.4286 42.7309 41.102 42.6718 40.7583L42.381 39.0625L46.7954 34.7595C47.1678 34.3964 47.2991 33.8639 47.1384 33.3704Z" fill="#00B307" stroke="#00B307" stroke-width="0.3"/>
<path d="M19.6314 35.3682H16.6316C16.2827 35.3682 16 35.6509 16 35.9997C16 36.3485 16.2827 36.6313 16.6316 36.6313H19.6314C19.9803 36.6313 20.263 36.3485 20.263 35.9997C20.263 35.6509 19.9802 35.3682 19.6314 35.3682Z" fill="#00B307" stroke="#00B307" stroke-width="0.3"/>
<path d="M55.3682 35.3682H52.3684C52.0195 35.3682 51.7368 35.651 51.7368 35.9997C51.7368 36.3485 52.0195 36.6313 52.3684 36.6313H55.3682C55.7171 36.6313 55.9997 36.3485 55.9997 35.9997C55.9997 35.6509 55.7171 35.3682 55.3682 35.3682Z" fill="#00B307" stroke="#00B307" stroke-width="0.3"/>
<path d="M23.9791 47.1274L21.8579 49.2485C21.6112 49.495 21.6112 49.895 21.8578 50.1416C21.9812 50.265 22.1428 50.3266 22.3045 50.3266C22.466 50.3266 22.6277 50.265 22.7509 50.1417L24.8721 48.0205C25.1188 47.7739 25.1188 47.374 24.8722 47.1274C24.6256 46.8807 24.2256 46.8807 23.9791 47.1274Z" fill="#00B307" stroke="#00B307" stroke-width="0.3"/>
<path d="M49.2487 21.8569L47.1274 23.978C46.8807 24.2247 46.8807 24.6246 47.1274 24.8712C47.2507 24.9946 47.4123 25.0562 47.574 25.0562C47.7356 25.0562 47.8973 24.9946 48.0205 24.8712L50.1417 22.7501C50.3884 22.5035 50.3884 22.1036 50.1418 21.8569C49.8951 21.6102 49.4952 21.6101 49.2487 21.8569Z" fill="#00B307" stroke="#00B307" stroke-width="0.3"/>
<path d="M36.0002 51.7373C35.6513 51.7373 35.3687 52.0201 35.3687 52.3689V55.3686C35.3687 55.7175 35.6514 56.0002 36.0002 56.0002C36.3491 56.0002 36.6318 55.7174 36.6318 55.3686V52.3689C36.6318 52.02 36.3491 51.7373 36.0002 51.7373Z" fill="#00B307" stroke="#00B307" stroke-width="0.3"/>
<path d="M36.0002 20.263C36.3491 20.263 36.6318 19.9802 36.6318 19.6314V16.6316C36.6318 16.2827 36.349 16 36.0002 16C35.6513 16 35.3687 16.2828 35.3687 16.6316V19.6314C35.3687 19.9802 35.6513 20.263 36.0002 20.263Z" fill="#00B307" stroke="#00B307" stroke-width="0.3"/>
<path d="M48.0205 47.1274C47.774 46.8807 47.3741 46.8807 47.1274 47.1274C46.8807 47.3739 46.8807 47.7739 47.1274 48.0205L49.2487 50.1417C49.3719 50.265 49.5337 50.3267 49.6952 50.3267C49.8568 50.3267 50.0185 50.265 50.1418 50.1416C50.3884 49.895 50.3884 49.4951 50.1417 49.2485L48.0205 47.1274Z" fill="#00B307" stroke="#00B307" stroke-width="0.3"/>
<path d="M23.979 24.8721C24.1024 24.9955 24.264 25.0571 24.4256 25.0571C24.5872 25.0571 24.7489 24.9955 24.8722 24.8723C25.1188 24.6257 25.1188 24.2257 24.8722 23.9791L22.751 21.8578C22.5045 21.6112 22.1046 21.6112 21.8578 21.8578C21.6112 22.1044 21.6112 22.5043 21.8578 22.751L23.979 24.8721Z" fill="#00B307" stroke="#00B307" stroke-width="0.3"/>
</g>
<defs>
<clipPath id="clip0_604_20468">
<rect width="40" height="40" fill="white" transform="translate(16 16)"/>
</clipPath>
</defs>
</svg>
