<svg width="72" height="72" viewBox="0 0 72 72" fill="none" xmlns="http://www.w3.org/2000/svg">
<rect width="72" height="72" rx="36" fill="#00B307" fill-opacity="0.1"/>
<g clip-path="url(#clip0_604_20414)">
<path d="M50.3819 49.201L48.3103 25.8543C48.273 25.3923 47.8855 25.042 47.4161 25.042H43.0493C43.0418 21.1596 39.8822 18 35.9998 18C32.1174 18 28.9578 21.1596 28.9503 25.042H24.5835C24.1215 25.042 23.734 25.3923 23.6893 25.8543L21.6177 49.201C21.6177 49.2308 21.6177 49.2532 21.6177 49.283C21.6177 51.8837 24.0097 54 26.9458 54H45.0538C47.9899 54 50.3819 51.8837 50.3819 49.283C50.3819 49.2532 50.3819 49.2308 50.3819 49.201ZM35.9998 19.7884C38.8986 19.7884 41.2534 22.1432 41.2608 25.042H30.7388C30.7462 22.1432 33.101 19.7884 35.9998 19.7884ZM45.0538 52.2041H26.9458C25.0083 52.2041 23.4285 50.9149 23.4061 49.3128L25.4032 26.8305H28.9503V29.9677C28.9503 30.4595 29.3527 30.8619 29.8445 30.8619C30.3364 30.8619 30.7388 30.4595 30.7388 29.9677V26.8305H41.2608V29.9677C41.2608 30.4595 41.6632 30.8619 42.155 30.8619C42.6469 30.8619 43.0493 30.4595 43.0493 29.9677V26.8305H46.5964L48.5935 49.3202C48.5711 50.9149 46.9913 52.2041 45.0538 52.2041Z" fill="#00B307"/>
<path d="M39.7183 36.6145L34.4424 41.8904L32.2888 39.7369C31.9385 39.3866 31.3722 39.3866 31.022 39.7369C30.6717 40.0871 30.6717 40.6534 31.022 41.0037L33.809 43.7907C33.9803 43.9621 34.2114 44.0515 34.4424 44.0515C34.6734 44.0515 34.8969 43.9621 35.0758 43.7907L40.9851 37.8813C41.3353 37.5311 41.3353 36.9648 40.9851 36.6145C40.6349 36.2717 40.0685 36.2717 39.7183 36.6145Z" fill="#00B307"/>
</g>
<defs>
<clipPath id="clip0_604_20414">
<rect width="36" height="36" fill="white" transform="translate(18 18)"/>
</clipPath>
</defs>
</svg>
