<svg width="72" height="72" viewBox="0 0 72 72" fill="none" xmlns="http://www.w3.org/2000/svg">
<rect width="72" height="72" rx="36" fill="#00B307" fill-opacity="0.1"/>
<path d="M48.7021 42.3041C47.7247 42.3041 46.7962 42.687 46.0957 43.3793C45.3952 44.0798 45.0043 44.992 45.0043 45.9694C45.0043 46.9468 45.3871 47.859 46.0957 48.5595C46.8043 49.2518 47.7247 49.6346 48.7021 49.6346C50.7058 49.6346 52.3348 47.9893 52.3348 45.9694C52.3348 43.9494 50.7058 42.3041 48.7021 42.3041ZM48.7021 48.0056C47.5781 48.0056 46.6333 47.0771 46.6333 45.9694C46.6333 44.8617 47.5781 43.9331 48.7021 43.9331C49.8098 43.9331 50.7058 44.8454 50.7058 45.9694C50.7058 47.0934 49.8098 48.0056 48.7021 48.0056ZM49.6469 30.0948C49.5003 29.9564 49.3048 29.8831 49.1012 29.8831H44.9228C44.4749 29.8831 44.1083 30.2496 44.1083 30.6975V37.3764C44.1083 37.8244 44.4749 38.1909 44.9228 38.1909H51.5528C52.0008 38.1909 52.3673 37.8244 52.3673 37.3764V32.9048C52.3673 32.6768 52.2696 32.4569 52.0986 32.3021L49.6469 30.0948ZM50.7383 36.5619H45.7373V31.5039H48.7835L50.7383 33.2632V36.5619ZM28.8121 42.3041C27.8347 42.3041 26.9061 42.687 26.2057 43.3793C25.5052 44.0798 25.1142 44.992 25.1142 45.9694C25.1142 46.9468 25.497 47.859 26.2057 48.5595C26.9143 49.2518 27.8347 49.6346 28.8121 49.6346C30.8157 49.6346 32.4447 47.9893 32.4447 45.9694C32.4447 43.9494 30.8157 42.3041 28.8121 42.3041ZM28.8121 48.0056C27.688 48.0056 26.7432 47.0771 26.7432 45.9694C26.7432 44.8617 27.688 43.9331 28.8121 43.9331C29.9198 43.9331 30.8157 44.8454 30.8157 45.9694C30.8157 47.0934 29.9198 48.0056 28.8121 48.0056ZM23.3794 43.306H21.7422V41.1394C21.7422 40.6914 21.3757 40.3249 20.9277 40.3249C20.4797 40.3249 20.1132 40.6914 20.1132 41.1394V44.1205C20.1132 44.5684 20.4797 44.935 20.9277 44.935H23.3794C23.8273 44.935 24.1939 44.5684 24.1939 44.1205C24.1939 43.6725 23.8273 43.306 23.3794 43.306ZM27.5089 38.867C27.5089 38.419 27.1423 38.0525 26.6944 38.0525H16.8145C16.3665 38.0525 16 38.419 16 38.867C16 39.3149 16.3665 39.6815 16.8145 39.6815H26.6944C27.1423 39.6815 27.5089 39.3231 27.5089 38.867ZM18.4679 35.9266L28.3478 35.9836C28.7958 35.9836 29.1623 35.6253 29.1704 35.1773C29.1786 34.7212 28.8121 34.3546 28.3641 34.3546L18.4842 34.2976C18.4761 34.2976 18.4761 34.2976 18.4761 34.2976C18.0281 34.2976 17.6616 34.656 17.6616 35.104C17.6534 35.5601 18.02 35.9266 18.4679 35.9266ZM20.1295 32.2288H30.0094C30.4573 32.2288 30.8239 31.8623 30.8239 31.4143C30.8239 30.9663 30.4573 30.5998 30.0094 30.5998H20.1295C19.6815 30.5998 19.315 30.9663 19.315 31.4143C19.315 31.8623 19.6815 32.2288 20.1295 32.2288ZM55.6986 31.1292L49.8668 26.2993C49.7202 26.1771 49.541 26.1119 49.3456 26.1119H42.4875V23.1797C42.4875 22.7318 42.121 22.3652 41.673 22.3652H20.9277C20.4797 22.3652 20.1132 22.7318 20.1132 23.1797V29.1419C20.1132 29.5898 20.4797 29.9564 20.9277 29.9564C21.3757 29.9564 21.7422 29.5898 21.7422 29.1419V23.9942H40.8666V43.306H34.1877C33.7398 43.306 33.3732 43.6725 33.3732 44.1205C33.3732 44.5684 33.7398 44.935 34.1877 44.935H44.1328C44.5807 44.935 44.9473 44.5684 44.9473 44.1205C44.9473 43.6725 44.5807 43.306 44.1328 43.306H42.4956V27.7409H49.0605L54.371 32.1392L54.314 43.2897H53.4669C53.0189 43.2897 52.6524 43.6562 52.6524 44.1042C52.6524 44.5522 53.0189 44.9187 53.4669 44.9187H55.1203C55.5683 44.9187 55.9348 44.5603 55.9348 44.1123L56 31.7645C55.9919 31.5202 55.886 31.284 55.6986 31.1292Z" fill="#00B307"/>
</svg>
