<svg width="72" height="72" viewBox="0 0 72 72" fill="none" xmlns="http://www.w3.org/2000/svg">
<rect width="72" height="72" rx="36" fill="#00B307" fill-opacity="0.1"/>
<g clip-path="url(#clip0_604_20424)">
<path d="M52.5561 26.4871C52.5561 26.3504 52.5257 26.2136 52.465 26.0844C52.3434 25.8261 52.1078 25.6513 51.8495 25.5981L36.3721 18.0912C36.1213 17.9696 35.825 17.9696 35.5743 18.0912L19.9449 25.6665C19.641 25.8109 19.4434 26.1148 19.4282 26.4567V26.4643C19.4282 26.4719 19.4282 26.4795 19.4282 26.4947V45.5053C19.4282 45.8548 19.6258 46.1739 19.9449 46.3259L35.5743 53.9012C35.5819 53.9012 35.5819 53.9012 35.5895 53.9088C35.6123 53.9164 35.6351 53.924 35.6579 53.9392C35.6655 53.9392 35.6731 53.9468 35.6882 53.9468C35.711 53.9544 35.7338 53.962 35.7566 53.9696C35.7642 53.9696 35.7718 53.9772 35.7794 53.9772C35.8022 53.9848 35.8326 53.9848 35.8554 53.9924C35.863 53.9924 35.8706 53.9924 35.8782 53.9924C35.9086 53.9924 35.9466 54 35.977 54C36.0074 54 36.0454 54 36.0758 53.9924C36.0834 53.9924 36.091 53.9924 36.0985 53.9924C36.1213 53.9924 36.1517 53.9848 36.1745 53.9772C36.1821 53.9772 36.1897 53.9696 36.1973 53.9696C36.2201 53.962 36.2429 53.9544 36.2657 53.9468C36.2733 53.9468 36.2809 53.9392 36.2961 53.9392C36.3189 53.9316 36.3417 53.924 36.3645 53.9088C36.3721 53.9088 36.3721 53.9088 36.3797 53.9012L52.0546 46.3031C52.3662 46.1511 52.5713 45.832 52.5713 45.4825V26.5099C52.5561 26.5023 52.5561 26.4947 52.5561 26.4871ZM35.9694 19.9223L49.5245 26.4947L44.5325 28.9185L30.9774 22.3461L35.9694 19.9223ZM35.9694 33.0671L22.4143 26.4947L28.8879 23.3567L42.443 29.9291L35.9694 33.0671ZM21.2518 27.9612L35.0576 34.6551V51.6218L21.2518 44.9278V27.9612ZM36.8812 51.6218V34.6551L43.3624 31.5095V35.9468C43.3624 36.4483 43.7727 36.8586 44.2742 36.8586C44.7756 36.8586 45.1859 36.4483 45.1859 35.9468V30.6205L50.7326 27.9308V44.8974L36.8812 51.6218Z" fill="#00B307"/>
</g>
<defs>
<clipPath id="clip0_604_20424">
<rect width="36" height="36" fill="white" transform="translate(18 18)"/>
</clipPath>
</defs>
</svg>
